<?xml version="1.0" encoding="UTF-8"?>
<svg width="32px" height="32px" viewBox="0 0 32 32" version="1.1" xmlns="http://www.w3.org/2000/svg" xmlns:xlink="http://www.w3.org/1999/xlink">
    <title>Hop Reveal 32x32 icon</title>
    <g id="Hop-Reveal-32x32-icon" stroke="none" stroke-width="1" fill="none" fill-rule="evenodd">
        <g id="Group" transform="translate(0.000000, 2.000000)" fill="#F4742B" fill-rule="nonzero">
            <g id="Group">
                <path d="M27.9997273,0 C30.208768,0 32,1.74111406 32,3.89071618 C32,6.03925729 30.208768,7.78143236 27.9997273,7.78143236 L4.00027272,7.78143236 C1.86026454,7.78143236 0.112360017,6.14644189 0.0052058365,4.09091062 L-1.75977751e-13,3.89071618 C-1.75977751e-13,1.74217507 1.79123202,0 4.00027272,0 L27.9997273,0 Z M26.9917502,2.35119363 C26.1175535,2.35119363 25.4088771,3.04046136 25.4088771,3.89071618 C25.4088771,4.740971 26.1175535,5.43023873 26.9917502,5.43023873 C27.8659469,5.43023873 28.5746233,4.740971 28.5746233,3.89071618 C28.5746233,3.04046136 27.8659469,2.35119363 26.9917502,2.35119363 Z" id="Combined-Shape"></path>
                <path d="M27.9997273,9.54907162 C30.208768,9.54907162 32,11.2912467 32,13.4397878 C32,15.5883289 30.208768,17.329443 27.9997273,17.329443 L4.00027272,17.329443 C1.86026454,17.329443 0.112360017,15.6954482 0.0052058365,13.6399792 L-1.75977751e-13,13.4397878 C-1.75977751e-13,11.2912467 1.79123202,9.54907162 4.00027272,9.54907162 L27.9997273,9.54907162 Z M26.9917502,11.8992042 C26.1175535,11.8992042 25.4088771,12.588472 25.4088771,13.4387268 C25.4088771,14.2889816 26.1175535,14.9782493 26.9917502,14.9782493 C27.8659469,14.9782493 28.5746233,14.2889816 28.5746233,13.4387268 C28.5746233,12.588472 27.8659469,11.8992042 26.9917502,11.8992042 Z" id="Combined-Shape"></path>
                <path d="M27.9997273,19.0970822 C30.208768,19.0970822 32,20.8403183 32,22.9888594 C32,25.1352785 30.208768,26.8785146 27.9997273,26.8785146 L4.00027272,26.8785146 C1.86026454,26.8785146 0.112360017,25.2425284 0.0052058365,23.1888641 L-1.75977751e-13,22.9888594 C-1.75977751e-13,20.8403183 1.79123202,19.0970822 4.00027272,19.0970822 L27.9997273,19.0970822 Z M26.9917502,21.4493369 C26.1175535,21.4493369 25.4088771,22.1386046 25.4088771,22.9888594 C25.4088771,23.8391142 26.1175535,24.528382 26.9917502,24.528382 C27.8659469,24.528382 28.5746233,23.8391142 28.5746233,22.9888594 C28.5746233,22.1386046 27.8659469,21.4493369 26.9917502,21.4493369 Z" id="Combined-Shape"></path>
            </g>
        </g>
    </g>
</svg>